{
    "asset": {
        "version": "2.0",
        "generator": "OpenAssetTools v0.32.0"
    },
    "scene": 0,
    "scenes": [
        {
            "nodes": [
                2
            ]
        }
    ],
    "nodes": [
        {
            "name": "root",
            "translation": [
                0.0,
                0.0,
                -0.0
            ],
            "rotation": [
                -0.7071068286895752,
                0.0,
                0.0,
                0.7071068286895752
            ]
        },
        {
            "name": "surf0",
            "skin": 0,
            "mesh": 0
        },
        {
            "name": "fx_char_gib_chunk_bone03_lod0_skel",
            "children": [
                1,
                0
            ]
        }
    ],
    "materials": [
        {
            "name": "mc/mtl_fx_char_gib_chunks",
            "pbrMetallicRoughness": {
                "baseColorTexture": {
                    "index": 0
                },
                "metallicFactor": 0.0
            },
            "normalTexture": {
                "index": 1
            },
            "doubleSided": true
        }
    ],
    "meshes": [
        {
            "primitives": [
                {
                    "attributes": {
                        "POSITION": 0,
                        "NORMAL": 1,
                        "TEXCOORD_0": 2,
                        "JOINTS_0": 3,
                        "WEIGHTS_0": 4
                    },
                    "indices": 6,
                    "material": 0,
                    "mode": 4
                }
            ]
        }
    ],
    "textures": [
        {
            "source": 0
        },
        {
            "source": 1
        }
    ],
    "images": [
        {
            "uri": "../images/~-glimbs_c.dds"
        },
        {
            "uri": "../images/limbs_n.dds"
        }
    ],
    "skins": [
        {
            "inverseBindMatrices": 5,
            "skeleton": 0,
            "joints": [
                0
            ]
        }
    ],
    "accessors": [
        {
            "bufferView": 0,
            "byteOffset": 0,
            "componentType": 5126,
            "count": 122,
            "type": "VEC3",
            "min": [
                -0.993556022644043,
                -1.6100809574127197,
                -2.8046178817749023
            ],
            "max": [
                1.6645536422729492,
                1.5022130012512207,
                1.7160420417785645
            ]
        },
        {
            "bufferView": 0,
            "byteOffset": 12,
            "componentType": 5126,
            "count": 122,
            "type": "VEC3"
        },
        {
            "bufferView": 0,
            "byteOffset": 24,
            "componentType": 5126,
            "count": 122,
            "type": "VEC2"
        },
        {
            "bufferView": 1,
            "componentType": 5121,
            "count": 122,
            "type": "VEC4"
        },
        {
            "bufferView": 2,
            "componentType": 5126,
            "count": 122,
            "type": "VEC4"
        },
        {
            "bufferView": 3,
            "componentType": 5126,
            "count": 1,
            "type": "MAT4"
        },
        {
            "bufferView": 4,
            "componentType": 5123,
            "count": 288,
            "type": "SCALAR"
        }
    ],
    "bufferViews": [
        {
            "buffer": 0,
            "byteLength": 3904,
            "byteOffset": 0,
            "byteStride": 32,
            "target": 34962
        },
        {
            "buffer": 0,
            "byteLength": 488,
            "byteOffset": 3904,
            "target": 34962
        },
        {
            "buffer": 0,
            "byteLength": 1952,
            "byteOffset": 4392,
            "target": 34962
        },
        {
            "buffer": 0,
            "byteLength": 64,
            "byteOffset": 6344
        },
        {
            "buffer": 0,
            "byteLength": 576,
            "byteOffset": 6408,
            "target": 34963
        }
    ],
    "buffers": [
        {
            "byteLength": 6984,
            "uri": "data:application/octet-stream;base64,"
        }
    ]
}