{
    "asset": {
        "version": "2.0",
        "generator": "OpenAssetTools v0.32.0"
    },
    "scene": 0,
    "scenes": [
        {
            "nodes": [
                3
            ]
        }
    ],
    "nodes": [
        {
            "name": "root",
            "translation": [
                0.0,
                0.0,
                -0.0
            ],
            "rotation": [
                -0.7071068286895752,
                0.0,
                0.0,
                0.7071068286895752
            ]
        },
        {
            "name": "surf0",
            "skin": 0,
            "mesh": 0
        },
        {
            "name": "surf1",
            "skin": 0,
            "mesh": 1
        },
        {
            "name": "p_zombie_ice_chunk_01_lod0_skel",
            "children": [
                1,
                2,
                0
            ]
        }
    ],
    "materials": [
        {
            "name": "mc/mtl_p_rus_icicles_out",
            "pbrMetallicRoughness": {
                "baseColorTexture": {
                    "index": 0
                },
                "metallicFactor": 0.0
            },
            "normalTexture": {
                "index": 1
            },
            "doubleSided": true
        },
        {
            "name": "mc/rus_ter_ice_slush",
            "pbrMetallicRoughness": {
                "baseColorTexture": {
                    "index": 2
                },
                "metallicFactor": 0.0
            },
            "normalTexture": {
                "index": 3
            },
            "doubleSided": true
        }
    ],
    "meshes": [
        {
            "primitives": [
                {
                    "attributes": {
                        "POSITION": 0,
                        "NORMAL": 1,
                        "TEXCOORD_0": 2,
                        "JOINTS_0": 3,
                        "WEIGHTS_0": 4
                    },
                    "indices": 6,
                    "material": 0,
                    "mode": 4
                }
            ]
        },
        {
            "primitives": [
                {
                    "attributes": {
                        "POSITION": 0,
                        "NORMAL": 1,
                        "TEXCOORD_0": 2,
                        "JOINTS_0": 3,
                        "WEIGHTS_0": 4
                    },
                    "indices": 7,
                    "material": 1,
                    "mode": 4
                }
            ]
        }
    ],
    "textures": [
        {
            "source": 0
        },
        {
            "source": 1
        },
        {
            "source": 2
        },
        {
            "source": 3
        }
    ],
    "images": [
        {
            "uri": "../images/~-grus_ter_ice_clear_c.dds"
        },
        {
            "uri": "../images/rus_ter_ice_clear_n.dds"
        },
        {
            "uri": "../images/~-grus_ter_ice_slush_c.dds"
        },
        {
            "uri": "../images/rus_ter_ice_slush_n.dds"
        }
    ],
    "skins": [
        {
            "inverseBindMatrices": 5,
            "skeleton": 0,
            "joints": [
                0
            ]
        }
    ],
    "accessors": [
        {
            "bufferView": 0,
            "byteOffset": 0,
            "componentType": 5126,
            "count": 912,
            "type": "VEC3",
            "min": [
                -10.71474838256836,
                -20.22665786743164,
                -8.126919746398926
            ],
            "max": [
                11.69025707244873,
                20.22665786743164,
                8.126919746398926
            ]
        },
        {
            "bufferView": 0,
            "byteOffset": 12,
            "componentType": 5126,
            "count": 912,
            "type": "VEC3"
        },
        {
            "bufferView": 0,
            "byteOffset": 24,
            "componentType": 5126,
            "count": 912,
            "type": "VEC2"
        },
        {
            "bufferView": 1,
            "componentType": 5121,
            "count": 912,
            "type": "VEC4"
        },
        {
            "bufferView": 2,
            "componentType": 5126,
            "count": 912,
            "type": "VEC4"
        },
        {
            "bufferView": 3,
            "componentType": 5126,
            "count": 1,
            "type": "MAT4"
        },
        {
            "bufferView": 4,
            "componentType": 5123,
            "count": 2502,
            "type": "SCALAR"
        },
        {
            "bufferView": 5,
            "componentType": 5123,
            "count": 2502,
            "type": "SCALAR"
        }
    ],
    "bufferViews": [
        {
            "buffer": 0,
            "byteLength": 29184,
            "byteOffset": 0,
            "byteStride": 32,
            "target": 34962
        },
        {
            "buffer": 0,
            "byteLength": 3648,
            "byteOffset": 29184,
            "target": 34962
        },
        {
            "buffer": 0,
            "byteLength": 14592,
            "byteOffset": 32832,
            "target": 34962
        },
        {
            "buffer": 0,
            "byteLength": 64,
            "byteOffset": 47424
        },
        {
            "buffer": 0,
            "byteLength": 5004,
            "byteOffset": 47488,
            "target": 34963
        },
        {
            "buffer": 0,
            "byteLength": 5004,
            "byteOffset": 52492,
            "target": 34963
        }
    ],
    "buffers": [
        {
            "byteLength": 57496,
            "uri": "data:application/octet-stream;base64,"
        }
    ]
}