{
    "asset": {
        "version": "2.0",
        "generator": "OpenAssetTools v0.32.0"
    },
    "scene": 0,
    "scenes": [
        {
            "nodes": [
                5
            ]
        }
    ],
    "nodes": [
        {
            "name": "tag_weapon",
            "translation": [
                0.0,
                0.0,
                -0.0
            ],
            "rotation": [
                -0.7071068286895752,
                3.004522497462858e-08,
                3.004522497462858e-08,
                0.7071068286895752
            ],
            "children": [
                1
            ]
        },
        {
            "name": "tag_flash",
            "translation": [
                13.25633716583252,
                -0.002353191375732422,
                5.768520832061768
            ],
            "rotation": [
                0.0,
                0.0,
                2.7320368189975852e-12,
                1.0
            ]
        },
        {
            "name": "surf0",
            "skin": 0,
            "mesh": 0
        },
        {
            "name": "surf1",
            "skin": 0,
            "mesh": 1
        },
        {
            "name": "surf2",
            "skin": 0,
            "mesh": 2
        },
        {
            "name": "t5_wpn_zmb_thundergun_world_lod1_skel",
            "children": [
                2,
                3,
                4,
                0
            ]
        }
    ],
    "materials": [
        {
            "name": "mc/mtl_t5_wpn_zmb_thundergun_camo",
            "pbrMetallicRoughness": {
                "baseColorTexture": {
                    "index": 0
                },
                "metallicFactor": 0.0
            },
            "normalTexture": {
                "index": 1
            },
            "doubleSided": true
        },
        {
            "name": "mc/mtl_t5_wpn_zmb_thundergun_control_box",
            "pbrMetallicRoughness": {
                "baseColorTexture": {
                    "index": 2
                },
                "metallicFactor": 0.0
            },
            "normalTexture": {
                "index": 3
            },
            "doubleSided": true
        },
        {
            "name": "mc/mtl_t5_wpn_zmb_thundergun_mesh",
            "pbrMetallicRoughness": {
                "baseColorTexture": {
                    "index": 4
                },
                "metallicFactor": 0.0
            },
            "normalTexture": {
                "index": 5
            },
            "doubleSided": true
        }
    ],
    "meshes": [
        {
            "primitives": [
                {
                    "attributes": {
                        "POSITION": 0,
                        "NORMAL": 1,
                        "TEXCOORD_0": 2,
                        "JOINTS_0": 3,
                        "WEIGHTS_0": 4
                    },
                    "indices": 6,
                    "material": 0,
                    "mode": 4
                }
            ]
        },
        {
            "primitives": [
                {
                    "attributes": {
                        "POSITION": 0,
                        "NORMAL": 1,
                        "TEXCOORD_0": 2,
                        "JOINTS_0": 3,
                        "WEIGHTS_0": 4
                    },
                    "indices": 7,
                    "material": 1,
                    "mode": 4
                }
            ]
        },
        {
            "primitives": [
                {
                    "attributes": {
                        "POSITION": 0,
                        "NORMAL": 1,
                        "TEXCOORD_0": 2,
                        "JOINTS_0": 3,
                        "WEIGHTS_0": 4
                    },
                    "indices": 8,
                    "material": 2,
                    "mode": 4
                }
            ]
        }
    ],
    "textures": [
        {
            "source": 0
        },
        {
            "source": 1
        },
        {
            "source": 2
        },
        {
            "source": 3
        },
        {
            "source": 4
        },
        {
            "source": 5
        }
    ],
    "images": [
        {
            "uri": "../images/~-gmtl_t5_wpn_zmb_thundergun_col.dds"
        },
        {
            "uri": "../images/mtl_t5_wpn_zmb_thundergun_nml.dds"
        },
        {
            "uri": "../images/~-gmtl_t5_wpn_zmb_thundergun_control_box_col.dds"
        },
        {
            "uri": "../images/mtl_t5_wpn_zmb_thundergun_control_box_nml.dds"
        },
        {
            "uri": "../images/~-gmtl_t5_wpn_zmb_thundergun_mesh_col.dds"
        },
        {
            "uri": "../images/mtl_t5_wpn_zmb_thundergun_mesh_nml.dds"
        }
    ],
    "skins": [
        {
            "inverseBindMatrices": 5,
            "skeleton": 0,
            "joints": [
                0,
                1
            ]
        }
    ],
    "accessors": [
        {
            "bufferView": 0,
            "byteOffset": 0,
            "componentType": 5126,
            "count": 1960,
            "type": "VEC3",
            "min": [
                -23.344919204711914,
                -7.425298690795898,
                -7.7710747718811035
            ],
            "max": [
                13.238723754882813,
                10.98017406463623,
                4.722938060760498
            ]
        },
        {
            "bufferView": 0,
            "byteOffset": 12,
            "componentType": 5126,
            "count": 1960,
            "type": "VEC3"
        },
        {
            "bufferView": 0,
            "byteOffset": 24,
            "componentType": 5126,
            "count": 1960,
            "type": "VEC2"
        },
        {
            "bufferView": 1,
            "componentType": 5121,
            "count": 1960,
            "type": "VEC4"
        },
        {
            "bufferView": 2,
            "componentType": 5126,
            "count": 1960,
            "type": "VEC4"
        },
        {
            "bufferView": 3,
            "componentType": 5126,
            "count": 2,
            "type": "MAT4"
        },
        {
            "bufferView": 4,
            "componentType": 5123,
            "count": 3441,
            "type": "SCALAR"
        },
        {
            "bufferView": 5,
            "componentType": 5123,
            "count": 132,
            "type": "SCALAR"
        },
        {
            "bufferView": 6,
            "componentType": 5123,
            "count": 24,
            "type": "SCALAR"
        }
    ],
    "bufferViews": [
        {
            "buffer": 0,
            "byteLength": 62720,
            "byteOffset": 0,
            "byteStride": 32,
            "target": 34962
        },
        {
            "buffer": 0,
            "byteLength": 7840,
            "byteOffset": 62720,
            "target": 34962
        },
        {
            "buffer": 0,
            "byteLength": 31360,
            "byteOffset": 70560,
            "target": 34962
        },
        {
            "buffer": 0,
            "byteLength": 128,
            "byteOffset": 101920
        },
        {
            "buffer": 0,
            "byteLength": 6882,
            "byteOffset": 102048,
            "target": 34963
        },
        {
            "buffer": 0,
            "byteLength": 264,
            "byteOffset": 108930,
            "target": 34963
        },
        {
            "buffer": 0,
            "byteLength": 48,
            "byteOffset": 109194,
            "target": 34963
        }
    ],
    "buffers": [
        {
            "byteLength": 109242,
            "uri": "data:application/octet-stream;base64,"
        }
    ]
}