{
    "asset": {
        "version": "2.0",
        "generator": "OpenAssetTools v0.32.0"
    },
    "scene": 0,
    "scenes": [
        {
            "nodes": [
                4
            ]
        }
    ],
    "nodes": [
        {
            "name": "tag_weapon",
            "translation": [
                0.0,
                0.0,
                -0.0
            ],
            "rotation": [
                -0.7071068286895752,
                0.0,
                0.0,
                0.7071068286895752
            ],
            "children": [
                1
            ]
        },
        {
            "name": "tag_flash",
            "translation": [
                5.017178058624268,
                -1.1920928955078125e-07,
                1.0797301530838013
            ],
            "rotation": [
                0.0,
                0.0,
                0.0,
                1.0
            ]
        },
        {
            "name": "surf0",
            "skin": 0,
            "mesh": 0
        },
        {
            "name": "surf1",
            "skin": 0,
            "mesh": 1
        },
        {
            "name": "t5_wpn_zmb_freezegun_v2_world_lod2_skel",
            "children": [
                2,
                3,
                0
            ]
        }
    ],
    "materials": [
        {
            "name": "mc/mtl_t5_wpn_zmb_freezegun_camo",
            "pbrMetallicRoughness": {
                "baseColorTexture": {
                    "index": 0
                },
                "metallicFactor": 0.0
            },
            "normalTexture": {
                "index": 1
            },
            "doubleSided": true
        },
        {
            "name": "mc/mtl_t5_wpn_zmb_freezegun_ammo",
            "pbrMetallicRoughness": {
                "baseColorTexture": {
                    "index": 2
                },
                "metallicFactor": 0.0
            },
            "normalTexture": {
                "index": 3
            },
            "doubleSided": true
        }
    ],
    "meshes": [
        {
            "primitives": [
                {
                    "attributes": {
                        "POSITION": 0,
                        "NORMAL": 1,
                        "TEXCOORD_0": 2,
                        "JOINTS_0": 3,
                        "WEIGHTS_0": 4
                    },
                    "indices": 6,
                    "material": 0,
                    "mode": 4
                }
            ]
        },
        {
            "primitives": [
                {
                    "attributes": {
                        "POSITION": 0,
                        "NORMAL": 1,
                        "TEXCOORD_0": 2,
                        "JOINTS_0": 3,
                        "WEIGHTS_0": 4
                    },
                    "indices": 7,
                    "material": 1,
                    "mode": 4
                }
            ]
        }
    ],
    "textures": [
        {
            "source": 0
        },
        {
            "source": 1
        },
        {
            "source": 2
        },
        {
            "source": 3
        }
    ],
    "images": [
        {
            "uri": "../images/~-gmtl_t5_wpn_zmb_freezegun_col.dds"
        },
        {
            "uri": "../images/mtl_t5_wpn_zmb_freezegun_nml.dds"
        },
        {
            "uri": "../images/~-gmtl_t5_wpn_zmb_freezegun_ammo_col.dds"
        },
        {
            "uri": "../images/mtl_t5_wpn_zmb_freezegun_ammo_nml.dds"
        }
    ],
    "skins": [
        {
            "inverseBindMatrices": 5,
            "skeleton": 0,
            "joints": [
                0,
                1
            ]
        }
    ],
    "accessors": [
        {
            "bufferView": 0,
            "byteOffset": 0,
            "componentType": 5126,
            "count": 1977,
            "type": "VEC3",
            "min": [
                -13.303430557250977,
                -4.094388008117676,
                -2.765712022781372
            ],
            "max": [
                5.991124153137207,
                2.8641490936279297,
                2.015852928161621
            ]
        },
        {
            "bufferView": 0,
            "byteOffset": 12,
            "componentType": 5126,
            "count": 1977,
            "type": "VEC3"
        },
        {
            "bufferView": 0,
            "byteOffset": 24,
            "componentType": 5126,
            "count": 1977,
            "type": "VEC2"
        },
        {
            "bufferView": 1,
            "componentType": 5121,
            "count": 1977,
            "type": "VEC4"
        },
        {
            "bufferView": 2,
            "componentType": 5126,
            "count": 1977,
            "type": "VEC4"
        },
        {
            "bufferView": 3,
            "componentType": 5126,
            "count": 2,
            "type": "MAT4"
        },
        {
            "bufferView": 4,
            "componentType": 5123,
            "count": 4050,
            "type": "SCALAR"
        },
        {
            "bufferView": 5,
            "componentType": 5123,
            "count": 444,
            "type": "SCALAR"
        }
    ],
    "bufferViews": [
        {
            "buffer": 0,
            "byteLength": 63264,
            "byteOffset": 0,
            "byteStride": 32,
            "target": 34962
        },
        {
            "buffer": 0,
            "byteLength": 7908,
            "byteOffset": 63264,
            "target": 34962
        },
        {
            "buffer": 0,
            "byteLength": 31632,
            "byteOffset": 71172,
            "target": 34962
        },
        {
            "buffer": 0,
            "byteLength": 128,
            "byteOffset": 102804
        },
        {
            "buffer": 0,
            "byteLength": 8100,
            "byteOffset": 102932,
            "target": 34963
        },
        {
            "buffer": 0,
            "byteLength": 888,
            "byteOffset": 111032,
            "target": 34963
        }
    ],
    "buffers": [
        {
            "byteLength": 111920,
            "uri": "data:application/octet-stream;base64,"
        }
    ]
}