{
    "asset": {
        "version": "2.0",
        "generator": "OpenAssetTools v0.32.0"
    },
    "scene": 0,
    "scenes": [
        {
            "nodes": [
                20
            ]
        }
    ],
    "nodes": [
        {
            "name": "j_gun",
            "translation": [
                0.0,
                0.0,
                -0.0
            ],
            "rotation": [
                -0.7071068286895752,
                0.0,
                0.0,
                0.7071068286895752
            ],
            "children": [
                1,
                2,
                3
            ]
        },
        {
            "name": "j_clip_release",
            "translation": [
                4.749199867248535,
                -1.7881393432617188e-07,
                0.9780351519584656
            ],
            "rotation": [
                0.0,
                0.0,
                0.0,
                1.0
            ],
            "children": [
                4,
                5,
                6,
                7,
                8,
                9,
                10
            ]
        },
        {
            "name": "tag_brass",
            "translation": [
                -3.451859951019287,
                0.006338596343994141,
                3.766465425491333
            ],
            "rotation": [
                0.27060702443122864,
                -0.27060702443122864,
                0.6532777547836304,
                0.6532777547836304
            ]
        },
        {
            "name": "tag_flash",
            "translation": [
                16.131359100341797,
                -2.384185791015625e-07,
                3.2089731693267822
            ],
            "rotation": [
                0.0,
                0.0,
                0.0,
                1.0
            ]
        },
        {
            "name": "j_ammo",
            "translation": [
                -5.124199867248535,
                -2.384185791015625e-07,
                2.021965265274048
            ],
            "rotation": [
                0.0,
                0.0,
                0.0,
                1.0
            ]
        },
        {
            "name": "j_vent1_l",
            "translation": [
                4.601807594299316,
                0.8878867626190186,
                3.021965503692627
            ],
            "rotation": [
                0.38267070055007935,
                0.0,
                0.0,
                0.9238847494125366
            ]
        },
        {
            "name": "j_vent1_r",
            "translation": [
                4.601807594299316,
                -0.8880002498626709,
                3.0219650268554688
            ],
            "rotation": [
                0.38267070055007935,
                0.0,
                0.0,
                0.9238847494125366
            ]
        },
        {
            "name": "j_vent2_l",
            "translation": [
                7.784060478210449,
                0.8878867626190186,
                3.021965503692627
            ],
            "rotation": [
                0.38267070055007935,
                0.0,
                0.0,
                0.9238847494125366
            ]
        },
        {
            "name": "j_vent2_r",
            "translation": [
                7.787473678588867,
                -0.8880002498626709,
                3.0219650268554688
            ],
            "rotation": [
                0.38267070055007935,
                0.0,
                0.0,
                0.9238847494125366
            ]
        },
        {
            "name": "j_vent3_l",
            "translation": [
                10.965511322021484,
                0.8878867626190186,
                3.021965503692627
            ],
            "rotation": [
                0.38267070055007935,
                0.0,
                0.0,
                0.9238847494125366
            ]
        },
        {
            "name": "j_vent3_r",
            "translation": [
                10.968923568725586,
                -0.8880002498626709,
                3.0219650268554688
            ],
            "rotation": [
                0.38267070055007935,
                0.0,
                0.0,
                0.9238847494125366
            ]
        },
        {
            "name": "surf0",
            "skin": 0,
            "mesh": 0
        },
        {
            "name": "surf1",
            "skin": 0,
            "mesh": 1
        },
        {
            "name": "surf2",
            "skin": 0,
            "mesh": 2
        },
        {
            "name": "surf3",
            "skin": 0,
            "mesh": 3
        },
        {
            "name": "surf4",
            "skin": 0,
            "mesh": 4
        },
        {
            "name": "surf5",
            "skin": 0,
            "mesh": 5
        },
        {
            "name": "surf6",
            "skin": 0,
            "mesh": 6
        },
        {
            "name": "surf7",
            "skin": 0,
            "mesh": 7
        },
        {
            "name": "surf8",
            "skin": 0,
            "mesh": 8
        },
        {
            "name": "t5_wpn_zmb_freezegun_v2_view_lod0_skel",
            "children": [
                11,
                12,
                13,
                14,
                15,
                16,
                17,
                18,
                19,
                0
            ]
        }
    ],
    "materials": [
        {
            "name": "mc/mtl_t5_wpn_zmb_freezegun_camo",
            "pbrMetallicRoughness": {
                "baseColorTexture": {
                    "index": 0
                },
                "metallicFactor": 0.0
            },
            "normalTexture": {
                "index": 1
            },
            "doubleSided": true
        },
        {
            "name": "mc/mtl_t5_wpn_zmb_freezegun_ammo",
            "pbrMetallicRoughness": {
                "baseColorTexture": {
                    "index": 2
                },
                "metallicFactor": 0.0
            },
            "normalTexture": {
                "index": 3
            },
            "doubleSided": true
        },
        {
            "name": "mc/mtl_t5_wpn_zmb_freezegun_ammo_unlit",
            "pbrMetallicRoughness": {
                "baseColorTexture": {
                    "index": 4
                },
                "metallicFactor": 0.0
            },
            "normalTexture": {
                "index": 5
            },
            "doubleSided": true
        },
        {
            "name": "mc/mtl_t5_wpn_zmb_freezegun_camo1",
            "pbrMetallicRoughness": {
                "baseColorTexture": {
                    "index": 0
                },
                "metallicFactor": 0.0
            },
            "normalTexture": {
                "index": 1
            },
            "doubleSided": true
        }
    ],
    "meshes": [
        {
            "primitives": [
                {
                    "attributes": {
                        "POSITION": 0,
                        "NORMAL": 1,
                        "TEXCOORD_0": 2,
                        "JOINTS_0": 3,
                        "WEIGHTS_0": 4
                    },
                    "indices": 6,
                    "material": 0,
                    "mode": 4
                }
            ]
        },
        {
            "primitives": [
                {
                    "attributes": {
                        "POSITION": 0,
                        "NORMAL": 1,
                        "TEXCOORD_0": 2,
                        "JOINTS_0": 3,
                        "WEIGHTS_0": 4
                    },
                    "indices": 7,
                    "material": 0,
                    "mode": 4
                }
            ]
        },
        {
            "primitives": [
                {
                    "attributes": {
                        "POSITION": 0,
                        "NORMAL": 1,
                        "TEXCOORD_0": 2,
                        "JOINTS_0": 3,
                        "WEIGHTS_0": 4
                    },
                    "indices": 8,
                    "material": 0,
                    "mode": 4
                }
            ]
        },
        {
            "primitives": [
                {
                    "attributes": {
                        "POSITION": 0,
                        "NORMAL": 1,
                        "TEXCOORD_0": 2,
                        "JOINTS_0": 3,
                        "WEIGHTS_0": 4
                    },
                    "indices": 9,
                    "material": 1,
                    "mode": 4
                }
            ]
        },
        {
            "primitives": [
                {
                    "attributes": {
                        "POSITION": 0,
                        "NORMAL": 1,
                        "TEXCOORD_0": 2,
                        "JOINTS_0": 3,
                        "WEIGHTS_0": 4
                    },
                    "indices": 10,
                    "material": 2,
                    "mode": 4
                }
            ]
        },
        {
            "primitives": [
                {
                    "attributes": {
                        "POSITION": 0,
                        "NORMAL": 1,
                        "TEXCOORD_0": 2,
                        "JOINTS_0": 3,
                        "WEIGHTS_0": 4
                    },
                    "indices": 11,
                    "material": 3,
                    "mode": 4
                }
            ]
        },
        {
            "primitives": [
                {
                    "attributes": {
                        "POSITION": 0,
                        "NORMAL": 1,
                        "TEXCOORD_0": 2,
                        "JOINTS_0": 3,
                        "WEIGHTS_0": 4
                    },
                    "indices": 12,
                    "material": 3,
                    "mode": 4
                }
            ]
        },
        {
            "primitives": [
                {
                    "attributes": {
                        "POSITION": 0,
                        "NORMAL": 1,
                        "TEXCOORD_0": 2,
                        "JOINTS_0": 3,
                        "WEIGHTS_0": 4
                    },
                    "indices": 13,
                    "material": 3,
                    "mode": 4
                }
            ]
        },
        {
            "primitives": [
                {
                    "attributes": {
                        "POSITION": 0,
                        "NORMAL": 1,
                        "TEXCOORD_0": 2,
                        "JOINTS_0": 3,
                        "WEIGHTS_0": 4
                    },
                    "indices": 14,
                    "material": 3,
                    "mode": 4
                }
            ]
        }
    ],
    "textures": [
        {
            "source": 0
        },
        {
            "source": 1
        },
        {
            "source": 2
        },
        {
            "source": 3
        },
        {
            "source": 4
        },
        {
            "source": 5
        }
    ],
    "images": [
        {
            "uri": "../images/~-gmtl_t5_wpn_zmb_freezegun_col.dds"
        },
        {
            "uri": "../images/mtl_t5_wpn_zmb_freezegun_nml.dds"
        },
        {
            "uri": "../images/~-gmtl_t5_wpn_zmb_freezegun_ammo_col.dds"
        },
        {
            "uri": "../images/mtl_t5_wpn_zmb_freezegun_ammo_nml.dds"
        },
        {
            "uri": "../images/~-gmtl_t5_wpn_zmb_freezegun_ammo_unlit_col.dds"
        },
        {
            "uri": "../images/$identitynormalmap.dds"
        }
    ],
    "skins": [
        {
            "inverseBindMatrices": 5,
            "skeleton": 0,
            "joints": [
                0,
                1,
                2,
                3,
                4,
                5,
                6,
                7,
                8,
                9,
                10
            ]
        }
    ],
    "accessors": [
        {
            "bufferView": 0,
            "byteOffset": 0,
            "componentType": 5126,
            "count": 7319,
            "type": "VEC3",
            "min": [
                -6.7932257652282715,
                -3.5900869369506836,
                -2.390990972518921
            ],
            "max": [
                17.507221221923828,
                5.552871227264404,
                2.5828020572662354
            ]
        },
        {
            "bufferView": 0,
            "byteOffset": 12,
            "componentType": 5126,
            "count": 7319,
            "type": "VEC3"
        },
        {
            "bufferView": 0,
            "byteOffset": 24,
            "componentType": 5126,
            "count": 7319,
            "type": "VEC2"
        },
        {
            "bufferView": 1,
            "componentType": 5121,
            "count": 7319,
            "type": "VEC4"
        },
        {
            "bufferView": 2,
            "componentType": 5126,
            "count": 7319,
            "type": "VEC4"
        },
        {
            "bufferView": 3,
            "componentType": 5126,
            "count": 11,
            "type": "MAT4"
        },
        {
            "bufferView": 4,
            "componentType": 5123,
            "count": 942,
            "type": "SCALAR"
        },
        {
            "bufferView": 5,
            "componentType": 5123,
            "count": 318,
            "type": "SCALAR"
        },
        {
            "bufferView": 6,
            "componentType": 5123,
            "count": 2910,
            "type": "SCALAR"
        },
        {
            "bufferView": 7,
            "componentType": 5123,
            "count": 810,
            "type": "SCALAR"
        },
        {
            "bufferView": 8,
            "componentType": 5123,
            "count": 324,
            "type": "SCALAR"
        },
        {
            "bufferView": 9,
            "componentType": 5123,
            "count": 6456,
            "type": "SCALAR"
        },
        {
            "bufferView": 10,
            "componentType": 5123,
            "count": 2376,
            "type": "SCALAR"
        },
        {
            "bufferView": 11,
            "componentType": 5123,
            "count": 2364,
            "type": "SCALAR"
        },
        {
            "bufferView": 12,
            "componentType": 5123,
            "count": 1800,
            "type": "SCALAR"
        }
    ],
    "bufferViews": [
        {
            "buffer": 0,
            "byteLength": 234208,
            "byteOffset": 0,
            "byteStride": 32,
            "target": 34962
        },
        {
            "buffer": 0,
            "byteLength": 29276,
            "byteOffset": 234208,
            "target": 34962
        },
        {
            "buffer": 0,
            "byteLength": 117104,
            "byteOffset": 263484,
            "target": 34962
        },
        {
            "buffer": 0,
            "byteLength": 704,
            "byteOffset": 380588
        },
        {
            "buffer": 0,
            "byteLength": 1884,
            "byteOffset": 381292,
            "target": 34963
        },
        {
            "buffer": 0,
            "byteLength": 636,
            "byteOffset": 383176,
            "target": 34963
        },
        {
            "buffer": 0,
            "byteLength": 5820,
            "byteOffset": 383812,
            "target": 34963
        },
        {
            "buffer": 0,
            "byteLength": 1620,
            "byteOffset": 389632,
            "target": 34963
        },
        {
            "buffer": 0,
            "byteLength": 648,
            "byteOffset": 391252,
            "target": 34963
        },
        {
            "buffer": 0,
            "byteLength": 12912,
            "byteOffset": 391900,
            "target": 34963
        },
        {
            "buffer": 0,
            "byteLength": 4752,
            "byteOffset": 404812,
            "target": 34963
        },
        {
            "buffer": 0,
            "byteLength": 4728,
            "byteOffset": 409564,
            "target": 34963
        },
        {
            "buffer": 0,
            "byteLength": 3600,
            "byteOffset": 414292,
            "target": 34963
        }
    ],
    "buffers": [
        {
            "byteLength": 417892,
            "uri": "data:application/octet-stream;base64,"
        }
    ]
}