{
    "asset": {
        "version": "2.0",
        "generator": "OpenAssetTools v0.32.0"
    },
    "scene": 0,
    "scenes": [
        {
            "nodes": [
                7
            ]
        }
    ],
    "nodes": [
        {
            "name": "tag_weapon",
            "translation": [
                0.0,
                0.0,
                -0.0
            ],
            "rotation": [
                -0.7071068286895752,
                1.2101619262239183e-08,
                1.2101619262239183e-08,
                0.7071068286895752
            ],
            "children": [
                1,
                2
            ]
        },
        {
            "name": "tag_brass",
            "translation": [
                -0.5452298521995544,
                3.4767651557922363,
                -0.15665531158447266
            ],
            "rotation": [
                0.5643155574798584,
                -0.5643177032470703,
                0.42606762051582336,
                0.426098495721817
            ]
        },
        {
            "name": "tag_flash",
            "translation": [
                30.816730499267578,
                -0.010064125061035156,
                1.0194156169891357
            ],
            "rotation": [
                0.0,
                0.0,
                7.006129010278528e-11,
                1.0
            ]
        },
        {
            "name": "surf0",
            "skin": 0,
            "mesh": 0
        },
        {
            "name": "surf1",
            "skin": 0,
            "mesh": 1
        },
        {
            "name": "surf2",
            "skin": 0,
            "mesh": 2
        },
        {
            "name": "surf3",
            "skin": 0,
            "mesh": 3
        },
        {
            "name": "t6_wpn_zmb_tesla_world_lod1_skel",
            "children": [
                3,
                4,
                5,
                6,
                0
            ]
        }
    ],
    "materials": [
        {
            "name": "mc/mtl_t6_wpn_zmb_tesla_vacuum_camo",
            "pbrMetallicRoughness": {
                "baseColorTexture": {
                    "index": 0
                },
                "metallicFactor": 0.0
            },
            "normalTexture": {
                "index": 1
            },
            "doubleSided": true
        },
        {
            "name": "mc/mtl_t6_wpn_zmb_tesla_vacuum_glass",
            "pbrMetallicRoughness": {
                "baseColorTexture": {
                    "index": 2
                },
                "metallicFactor": 0.0
            },
            "normalTexture": {
                "index": 3
            },
            "doubleSided": true
        },
        {
            "name": "mc/mtl_t6_wpn_zmb_tesla_chamber_glass",
            "pbrMetallicRoughness": {
                "baseColorTexture": {
                    "index": 4
                },
                "metallicFactor": 0.0
            },
            "normalTexture": {
                "index": 5
            },
            "doubleSided": true
        },
        {
            "name": "mc/mtl_t6_wpn_zmb_tesla_chamber",
            "pbrMetallicRoughness": {
                "baseColorTexture": {
                    "index": 6
                },
                "metallicFactor": 0.0
            },
            "normalTexture": {
                "index": 7
            },
            "doubleSided": true
        },
        {
            "name": "mc/mtl_t6_wpn_zmb_tesla_camo",
            "pbrMetallicRoughness": {
                "baseColorTexture": {
                    "index": 8
                },
                "metallicFactor": 0.0
            },
            "normalTexture": {
                "index": 9
            },
            "doubleSided": true
        }
    ],
    "meshes": [
        {
            "primitives": [
                {
                    "attributes": {
                        "POSITION": 0,
                        "NORMAL": 1,
                        "TEXCOORD_0": 2,
                        "JOINTS_0": 3,
                        "WEIGHTS_0": 4
                    },
                    "indices": 6,
                    "material": 0,
                    "mode": 4
                }
            ]
        },
        {
            "primitives": [
                {
                    "attributes": {
                        "POSITION": 0,
                        "NORMAL": 1,
                        "TEXCOORD_0": 2,
                        "JOINTS_0": 3,
                        "WEIGHTS_0": 4
                    },
                    "indices": 7,
                    "material": 1,
                    "mode": 4
                }
            ]
        },
        {
            "primitives": [
                {
                    "attributes": {
                        "POSITION": 0,
                        "NORMAL": 1,
                        "TEXCOORD_0": 2,
                        "JOINTS_0": 3,
                        "WEIGHTS_0": 4
                    },
                    "indices": 8,
                    "material": 3,
                    "mode": 4
                }
            ]
        },
        {
            "primitives": [
                {
                    "attributes": {
                        "POSITION": 0,
                        "NORMAL": 1,
                        "TEXCOORD_0": 2,
                        "JOINTS_0": 3,
                        "WEIGHTS_0": 4
                    },
                    "indices": 9,
                    "material": 4,
                    "mode": 4
                }
            ]
        }
    ],
    "textures": [
        {
            "source": 0
        },
        {
            "source": 1
        },
        {
            "source": 2
        },
        {
            "source": 3
        },
        {
            "source": 4
        },
        {
            "source": 5
        },
        {
            "source": 6
        },
        {
            "source": 7
        },
        {
            "source": 8
        },
        {
            "source": 9
        }
    ],
    "images": [
        {
            "uri": "../images/~-gmtl_t6_wpn_zmb_tesla_vacuum_camo_col.dds"
        },
        {
            "uri": "../images/mtl_t6_wpn_zmb_tesla_vacuum_camo_nml.dds"
        },
        {
            "uri": "../images/~-gmtl_t6_wpn_zmb_tesla_vacuum_glass_col.dds"
        },
        {
            "uri": "../images/mtl_t6_wpn_zmb_tesla_vacuum_glass_nml.dds"
        },
        {
            "uri": "../images/~-gmtl_t6_wpn_zmb_tesla_glass_col.dds"
        },
        {
            "uri": "../images/mtl_t6_wpn_zmb_tesla_glass_nml.dds"
        },
        {
            "uri": "../images/~-gmtl_t6_wpn_zmb_tesla_chamber_col.dds"
        },
        {
            "uri": "../images/mtl_t6_wpn_zmb_tesla_chamber_nml.dds"
        },
        {
            "uri": "../images/~-gmtl_t6_wpn_zmb_tesla_camo_col.dds"
        },
        {
            "uri": "../images/mtl_t6_wpn_zmb_tesla_nml.dds"
        }
    ],
    "skins": [
        {
            "inverseBindMatrices": 5,
            "skeleton": 0,
            "joints": [
                0,
                1,
                2
            ]
        }
    ],
    "accessors": [
        {
            "bufferView": 0,
            "byteOffset": 0,
            "componentType": 5126,
            "count": 1627,
            "type": "VEC3",
            "min": [
                -21.514976501464844,
                -10.927139282226563,
                -5.738574028015137
            ],
            "max": [
                32.39094543457031,
                5.632221221923828,
                4.181328773498535
            ]
        },
        {
            "bufferView": 0,
            "byteOffset": 12,
            "componentType": 5126,
            "count": 1627,
            "type": "VEC3"
        },
        {
            "bufferView": 0,
            "byteOffset": 24,
            "componentType": 5126,
            "count": 1627,
            "type": "VEC2"
        },
        {
            "bufferView": 1,
            "componentType": 5121,
            "count": 1627,
            "type": "VEC4"
        },
        {
            "bufferView": 2,
            "componentType": 5126,
            "count": 1627,
            "type": "VEC4"
        },
        {
            "bufferView": 3,
            "componentType": 5126,
            "count": 3,
            "type": "MAT4"
        },
        {
            "bufferView": 4,
            "componentType": 5123,
            "count": 24,
            "type": "SCALAR"
        },
        {
            "bufferView": 5,
            "componentType": 5123,
            "count": 132,
            "type": "SCALAR"
        },
        {
            "bufferView": 6,
            "componentType": 5123,
            "count": 27,
            "type": "SCALAR"
        },
        {
            "bufferView": 7,
            "componentType": 5123,
            "count": 2730,
            "type": "SCALAR"
        }
    ],
    "bufferViews": [
        {
            "buffer": 0,
            "byteLength": 52064,
            "byteOffset": 0,
            "byteStride": 32,
            "target": 34962
        },
        {
            "buffer": 0,
            "byteLength": 6508,
            "byteOffset": 52064,
            "target": 34962
        },
        {
            "buffer": 0,
            "byteLength": 26032,
            "byteOffset": 58572,
            "target": 34962
        },
        {
            "buffer": 0,
            "byteLength": 192,
            "byteOffset": 84604
        },
        {
            "buffer": 0,
            "byteLength": 48,
            "byteOffset": 84796,
            "target": 34963
        },
        {
            "buffer": 0,
            "byteLength": 264,
            "byteOffset": 84844,
            "target": 34963
        },
        {
            "buffer": 0,
            "byteLength": 54,
            "byteOffset": 85108,
            "target": 34963
        },
        {
            "buffer": 0,
            "byteLength": 5460,
            "byteOffset": 85162,
            "target": 34963
        }
    ],
    "buffers": [
        {
            "byteLength": 90622,
            "uri": "data:application/octet-stream;base64,"
        }
    ]
}