{
    "asset": {
        "version": "2.0",
        "generator": "OpenAssetTools v0.32.0"
    },
    "scene": 0,
    "scenes": [
        {
            "nodes": [
                9
            ]
        }
    ],
    "nodes": [
        {
            "name": "tag_weapon",
            "translation": [
                0.0,
                0.0,
                -0.0
            ],
            "rotation": [
                -0.7071068286895752,
                1.2101619262239183e-08,
                1.2101619262239183e-08,
                0.7071068286895752
            ],
            "children": [
                1,
                2
            ]
        },
        {
            "name": "tag_brass",
            "translation": [
                -0.5452298521995544,
                3.4767651557922363,
                -0.15665531158447266
            ],
            "rotation": [
                0.5643155574798584,
                -0.5643177032470703,
                0.42606762051582336,
                0.426098495721817
            ]
        },
        {
            "name": "tag_flash",
            "translation": [
                30.816730499267578,
                -0.010064125061035156,
                1.0194156169891357
            ],
            "rotation": [
                0.0,
                0.0,
                7.006129010278528e-11,
                1.0
            ]
        },
        {
            "name": "surf0",
            "skin": 0,
            "mesh": 0
        },
        {
            "name": "surf1",
            "skin": 0,
            "mesh": 1
        },
        {
            "name": "surf2",
            "skin": 0,
            "mesh": 2
        },
        {
            "name": "surf3",
            "skin": 0,
            "mesh": 3
        },
        {
            "name": "surf4",
            "skin": 0,
            "mesh": 4
        },
        {
            "name": "surf5",
            "skin": 0,
            "mesh": 5
        },
        {
            "name": "t6_wpn_zmb_tesla_world_lod0_skel",
            "children": [
                3,
                4,
                5,
                6,
                7,
                8,
                0
            ]
        }
    ],
    "materials": [
        {
            "name": "mc/mtl_t6_wpn_zmb_tesla_vacuum_camo",
            "pbrMetallicRoughness": {
                "baseColorTexture": {
                    "index": 0
                },
                "metallicFactor": 0.0
            },
            "normalTexture": {
                "index": 1
            },
            "doubleSided": true
        },
        {
            "name": "mc/mtl_t6_wpn_zmb_tesla_vacuum_glass",
            "pbrMetallicRoughness": {
                "baseColorTexture": {
                    "index": 2
                },
                "metallicFactor": 0.0
            },
            "normalTexture": {
                "index": 3
            },
            "doubleSided": true
        },
        {
            "name": "mc/mtl_t6_wpn_zmb_tesla_chamber_glass",
            "pbrMetallicRoughness": {
                "baseColorTexture": {
                    "index": 4
                },
                "metallicFactor": 0.0
            },
            "normalTexture": {
                "index": 5
            },
            "doubleSided": true
        },
        {
            "name": "mc/mtl_t6_wpn_zmb_tesla_chamber",
            "pbrMetallicRoughness": {
                "baseColorTexture": {
                    "index": 6
                },
                "metallicFactor": 0.0
            },
            "normalTexture": {
                "index": 7
            },
            "doubleSided": true
        },
        {
            "name": "mc/mtl_t6_wpn_zmb_tesla_camo",
            "pbrMetallicRoughness": {
                "baseColorTexture": {
                    "index": 8
                },
                "metallicFactor": 0.0
            },
            "normalTexture": {
                "index": 9
            },
            "doubleSided": true
        }
    ],
    "meshes": [
        {
            "primitives": [
                {
                    "attributes": {
                        "POSITION": 0,
                        "NORMAL": 1,
                        "TEXCOORD_0": 2,
                        "JOINTS_0": 3,
                        "WEIGHTS_0": 4
                    },
                    "indices": 6,
                    "material": 0,
                    "mode": 4
                }
            ]
        },
        {
            "primitives": [
                {
                    "attributes": {
                        "POSITION": 0,
                        "NORMAL": 1,
                        "TEXCOORD_0": 2,
                        "JOINTS_0": 3,
                        "WEIGHTS_0": 4
                    },
                    "indices": 7,
                    "material": 1,
                    "mode": 4
                }
            ]
        },
        {
            "primitives": [
                {
                    "attributes": {
                        "POSITION": 0,
                        "NORMAL": 1,
                        "TEXCOORD_0": 2,
                        "JOINTS_0": 3,
                        "WEIGHTS_0": 4
                    },
                    "indices": 8,
                    "material": 2,
                    "mode": 4
                }
            ]
        },
        {
            "primitives": [
                {
                    "attributes": {
                        "POSITION": 0,
                        "NORMAL": 1,
                        "TEXCOORD_0": 2,
                        "JOINTS_0": 3,
                        "WEIGHTS_0": 4
                    },
                    "indices": 9,
                    "material": 3,
                    "mode": 4
                }
            ]
        },
        {
            "primitives": [
                {
                    "attributes": {
                        "POSITION": 0,
                        "NORMAL": 1,
                        "TEXCOORD_0": 2,
                        "JOINTS_0": 3,
                        "WEIGHTS_0": 4
                    },
                    "indices": 10,
                    "material": 4,
                    "mode": 4
                }
            ]
        },
        {
            "primitives": [
                {
                    "attributes": {
                        "POSITION": 0,
                        "NORMAL": 1,
                        "TEXCOORD_0": 2,
                        "JOINTS_0": 3,
                        "WEIGHTS_0": 4
                    },
                    "indices": 11,
                    "material": 4,
                    "mode": 4
                }
            ]
        }
    ],
    "textures": [
        {
            "source": 0
        },
        {
            "source": 1
        },
        {
            "source": 2
        },
        {
            "source": 3
        },
        {
            "source": 4
        },
        {
            "source": 5
        },
        {
            "source": 6
        },
        {
            "source": 7
        },
        {
            "source": 8
        },
        {
            "source": 9
        }
    ],
    "images": [
        {
            "uri": "../images/~-gmtl_t6_wpn_zmb_tesla_vacuum_camo_col.dds"
        },
        {
            "uri": "../images/mtl_t6_wpn_zmb_tesla_vacuum_camo_nml.dds"
        },
        {
            "uri": "../images/~-gmtl_t6_wpn_zmb_tesla_vacuum_glass_col.dds"
        },
        {
            "uri": "../images/mtl_t6_wpn_zmb_tesla_vacuum_glass_nml.dds"
        },
        {
            "uri": "../images/~-gmtl_t6_wpn_zmb_tesla_glass_col.dds"
        },
        {
            "uri": "../images/mtl_t6_wpn_zmb_tesla_glass_nml.dds"
        },
        {
            "uri": "../images/~-gmtl_t6_wpn_zmb_tesla_chamber_col.dds"
        },
        {
            "uri": "../images/mtl_t6_wpn_zmb_tesla_chamber_nml.dds"
        },
        {
            "uri": "../images/~-gmtl_t6_wpn_zmb_tesla_camo_col.dds"
        },
        {
            "uri": "../images/mtl_t6_wpn_zmb_tesla_nml.dds"
        }
    ],
    "skins": [
        {
            "inverseBindMatrices": 5,
            "skeleton": 0,
            "joints": [
                0,
                1,
                2
            ]
        }
    ],
    "accessors": [
        {
            "bufferView": 0,
            "byteOffset": 0,
            "componentType": 5126,
            "count": 5145,
            "type": "VEC3",
            "min": [
                -21.75716781616211,
                -10.956995964050293,
                -5.738574028015137
            ],
            "max": [
                30.81673240661621,
                5.632221221923828,
                4.303494930267334
            ]
        },
        {
            "bufferView": 0,
            "byteOffset": 12,
            "componentType": 5126,
            "count": 5145,
            "type": "VEC3"
        },
        {
            "bufferView": 0,
            "byteOffset": 24,
            "componentType": 5126,
            "count": 5145,
            "type": "VEC2"
        },
        {
            "bufferView": 1,
            "componentType": 5121,
            "count": 5145,
            "type": "VEC4"
        },
        {
            "bufferView": 2,
            "componentType": 5126,
            "count": 5145,
            "type": "VEC4"
        },
        {
            "bufferView": 3,
            "componentType": 5126,
            "count": 3,
            "type": "MAT4"
        },
        {
            "bufferView": 4,
            "componentType": 5123,
            "count": 837,
            "type": "SCALAR"
        },
        {
            "bufferView": 5,
            "componentType": 5123,
            "count": 519,
            "type": "SCALAR"
        },
        {
            "bufferView": 6,
            "componentType": 5123,
            "count": 12,
            "type": "SCALAR"
        },
        {
            "bufferView": 7,
            "componentType": 5123,
            "count": 30,
            "type": "SCALAR"
        },
        {
            "bufferView": 8,
            "componentType": 5123,
            "count": 9480,
            "type": "SCALAR"
        },
        {
            "bufferView": 9,
            "componentType": 5123,
            "count": 156,
            "type": "SCALAR"
        }
    ],
    "bufferViews": [
        {
            "buffer": 0,
            "byteLength": 164640,
            "byteOffset": 0,
            "byteStride": 32,
            "target": 34962
        },
        {
            "buffer": 0,
            "byteLength": 20580,
            "byteOffset": 164640,
            "target": 34962
        },
        {
            "buffer": 0,
            "byteLength": 82320,
            "byteOffset": 185220,
            "target": 34962
        },
        {
            "buffer": 0,
            "byteLength": 192,
            "byteOffset": 267540
        },
        {
            "buffer": 0,
            "byteLength": 1674,
            "byteOffset": 267732,
            "target": 34963
        },
        {
            "buffer": 0,
            "byteLength": 1038,
            "byteOffset": 269406,
            "target": 34963
        },
        {
            "buffer": 0,
            "byteLength": 24,
            "byteOffset": 270444,
            "target": 34963
        },
        {
            "buffer": 0,
            "byteLength": 60,
            "byteOffset": 270468,
            "target": 34963
        },
        {
            "buffer": 0,
            "byteLength": 18960,
            "byteOffset": 270528,
            "target": 34963
        },
        {
            "buffer": 0,
            "byteLength": 312,
            "byteOffset": 289488,
            "target": 34963
        }
    ],
    "buffers": [
        {
            "byteLength": 289800,
            "uri": "data:application/octet-stream;base64,"
        }
    ]
}